# xmcd
#
# Track frame offsets: 
#        150
#        12721
#        31220
#        54803
#        76276
#        88911
#        105532
#        116667
#        130498
#
# Disc length: 1882 seconds
#
# Revision: 0
# Processed by: cddbd v1.4PL0 Copyright (c) Steve Scherf et al.
# Submitted via: ExactAudioCopy v0.90b2
#
DISCID=6f075809
DTITLE=Appa's Bluespower - Appa's Bluespower
DYEAR=1998
DGENRE=Blues
TTITLE0=Downtown Party
TTITLE1=Sixth Street Blues
TTITLE2=Dead People
TTITLE3=Sweet Tooth
TTITLE4=I Wanna Know
TTITLE5=Caught Me Runnin' Scared
TTITLE6=Chugalug
TTITLE7=In The Dead of The Heat
TTITLE8=Rich Man's Daughter
EXTD=
EXTT0=
EXTT1=
EXTT2=
EXTT3=
EXTT4=
EXTT5=
EXTT6=
EXTT7=
EXTT8=
PLAYORDER=
